<svg width="27" height="15" viewBox="0 0 27 15" fill="none" xmlns="http://www.w3.org/2000/svg">
<path d="M11.7483 14.3163L0.580625 3.32443C-0.737333 2.03115 0.333799 7.37281e-07 2.33402 7.37281e-07H24.6695C25.1171 -0.000329755 25.5554 0.110456 25.9318 0.319091C26.3082 0.527726 26.6068 0.825367 26.7918 1.17637C26.9768 1.52737 27.0404 1.91686 26.975 2.29818C26.9095 2.67951 26.7179 3.03651 26.4229 3.32644L15.2551 14.3143C15.0366 14.5297 14.767 14.7023 14.4646 14.8205C14.1622 14.9388 13.8339 15 13.5017 15C13.1696 15 12.8413 14.9388 12.5389 14.8205C12.2364 14.7023 11.9669 14.5297 11.7483 14.3143V14.3163Z" fill="#1D130D"/>
</svg>
