<?xml version="1.0" encoding="UTF-8"?><svg id="Layer_2" xmlns="http://www.w3.org/2000/svg" viewBox="0 0 192.6 61.6"><defs><style>.cls-1{fill:#fff;stroke:#000;stroke-miterlimit:10;stroke-width:.2px;}</style></defs><g id="Layer_1-2"><path class="cls-1" d="m55.9,24.5v10.2s46,0,46,0v-10.2s-46,0-46,0Zm0-23.8v10.3s49.4,0,49.4,0V.7s-49.4,0-49.4,0Zm0,50.5v10.2s51.2,0,51.2,0v-10.2s-51.2,0-51.2,0Z"/><rect class="cls-1" x="41" y=".7" width="12" height="12"/><rect class="cls-1" x="41" y="17" width="12" height="12"/><rect class="cls-1" x="41" y="33.2" width="12" height="12"/><rect class="cls-1" x="41" y="49.5" width="12" height="12"/><rect class="cls-1" x="25" y="41.6" width="12" height="12"/><rect class="cls-1" x="22" y="10.7" width="12" height="12"/><rect class="cls-1" x=".1" y="28.6" width="12" height="12"/><path class="cls-1" d="m114.7.1h34.2c7.7,0,13.6.4,17.7,1.2,5.4,1.1,10.1,2.9,14,5.6,3.9,2.7,6.8,6,8.9,9.9,2,3.9,3,8.7,3,14.4,0,5-.9,9.3-2.8,13-2.3,4.4-5.6,8-9.9,10.8-3.2,2.1-7.6,3.7-13.2,4.9-4.1.9-9.7,1.3-16.6,1.3h-35.2s0-61,0-61Zm18.7,10.3v40.4s14,0,14,0c5.2,0,9-.2,11.3-.6,3-.5,5.6-1.3,7.6-2.5s3.6-3.2,4.9-5.9c1.3-2.7,1.9-6.5,1.9-11.2s-.6-8.3-1.9-10.9c-1.3-2.5-3-4.5-5.3-5.9-2.3-1.4-5.2-2.4-8.7-2.9-2.6-.4-7.7-.6-15.4-.6h-8.4Z"/></g></svg>