<svg width="256" height="257" viewBox="0 0 256 257" fill="none" xmlns="http://www.w3.org/2000/svg">
<path d="M255.439 126.841C255.576 155.579 248.9 180.566 233.423 202.826C213.733 231.14 186.641 248.251 152.839 254.547C129.716 258.853 106.82 257.553 84.3934 250.149C69.4093 245.203 56.0943 237.347 44.1014 227.113C30.8809 215.835 20.21 202.581 12.5457 186.974C5.37904 172.381 1.51242 156.911 0.425169 140.687C-0.708019 123.773 0.269484 107.072 5.24122 90.7884C14.2557 61.2591 32.499 38.6898 57.7763 21.401C73.6256 10.5591 90.9756 3.64002 109.98 1.16181C137.549 -2.43172 163.686 2.2899 188.154 15.6202C192.825 18.1647 197.34 21.0079 201.811 23.8919C204.279 25.4845 206.645 27.2992 208.822 29.2746C220.879 40.2185 232.374 51.6551 240.031 66.3125C250.227 85.8294 255.885 106.472 255.441 126.844L255.439 126.841ZM94.5972 158.706C94.1455 159.742 93.6963 160.686 93.316 161.659C90.968 167.674 88.1503 173.56 86.402 179.746C82.7677 192.609 83.6303 204.919 92.7086 215.687C93.5968 216.738 94.2986 217.989 94.8882 219.242C96.9989 223.724 100.562 225.594 106.776 224.775C108.729 224.517 110.518 224.094 110.763 221.582C121.235 221.582 131.571 221.587 141.905 221.577C143.299 221.577 144.629 221.388 145.065 223.354C145.193 223.925 146.461 224.614 147.204 224.609C149.804 224.597 152.482 224.625 154.97 223.997C156.471 223.619 158.502 222.284 158.855 220.99C159.743 217.703 161.874 215.669 164.26 213.663C164.564 213.408 164.75 213.009 164.98 212.67C170.626 204.396 171.611 195.228 170.128 185.601C168.765 176.765 165.348 168.606 161.767 160.505C161.422 159.724 161.144 158.912 160.789 157.994C169.135 155.709 176.335 151.891 182.585 146.414C187.58 142.037 192.455 137.512 195.099 131.16C195.306 130.664 196.189 130.22 196.799 130.162C201.122 129.748 205.463 129.488 209.789 129.092C215.32 128.587 220.841 127.997 226.269 127.454C226.869 125.266 226.284 124.337 224.189 124.536C219.621 124.97 215.044 125.315 210.476 125.762C206.507 126.149 202.546 126.627 198.501 127.073C199.67 122.934 201.066 119.067 201.829 115.078C203.567 105.982 203.172 96.7835 202.431 87.6108C201.199 72.3766 198.685 57.3721 193.999 42.7937C193.21 40.3385 191.878 38.0287 190.581 35.7777C189.711 34.2616 188.198 33.7206 186.363 33.8609C181.901 34.2029 178.249 36.3162 174.872 38.9807C166.989 45.2056 159.408 51.8414 153.896 60.2918C151.53 63.9185 148.888 64.0614 145.313 63.7705C132.209 62.7037 119.104 62.7471 106.031 64.2886C104.625 64.4545 103.834 64.0819 102.989 62.9461C99.8574 58.7375 96.7309 54.5059 93.3313 50.5168C87.696 43.904 81.1164 38.3809 73.2504 34.55C69.394 32.6716 66.1118 33.7129 64.1007 37.457C62.748 39.9761 61.4413 42.5487 60.4178 45.2158C54.4813 60.6593 52.5825 76.7945 52.5621 93.2053C52.5468 104.494 53.6008 115.639 57.9524 126.234C58.0366 126.44 57.9626 126.711 57.9626 127.188C48.5295 126.193 39.1501 125.203 29.9034 124.228C29.1658 126.729 29.712 127.515 31.7665 127.683C39.6886 128.332 47.5852 129.434 55.515 129.789C59.3663 129.962 61.2345 131.32 62.9905 134.735C67.5181 143.543 75.4453 148.931 83.8958 153.527C87.3234 155.39 90.9246 156.934 94.6024 158.698L94.5972 158.706ZM175.873 176.745C185.046 176.824 193.871 178.427 202.738 180.111C208.473 181.201 213.748 179.157 218.082 175.122C220.598 172.779 220.445 170.382 217.597 168.422C216.328 167.549 214.927 166.763 213.475 166.281C208.301 164.56 202.993 163.677 197.529 164.415C188.7 165.604 181.725 170.109 175.875 176.745H175.873ZM79.5774 176.885C79.0082 176.048 78.7964 175.512 78.4059 175.198C72.7425 170.653 66.7703 166.638 59.5373 165.03C51.9444 163.343 44.6017 163.494 37.8 168.011C34.4821 170.214 34.4897 172.082 37.1364 174.795C41.3705 179.136 46.6664 181.193 53.0036 180.058C59.2719 178.935 65.6014 178.141 71.9182 177.319C74.3045 177.01 76.7342 177.033 79.5748 176.883L79.5774 176.885ZM78.4621 194.304C73.179 191.655 67.9341 191.116 62.4622 192.056C52.8811 193.702 46.133 201.019 46.1151 209.834C46.1075 212.963 47.8685 215.676 50.4922 216.583C54.4431 217.948 57.0131 217.338 59.2438 214.36C59.9712 213.39 60.5403 212.272 61.0252 211.151C63.8072 204.738 68.3859 199.993 74.4244 196.583C75.6903 195.869 76.9563 195.151 78.4621 194.302V194.304ZM176.697 193.602C176.639 193.829 176.582 194.059 176.524 194.286C178.65 195.437 180.796 196.553 182.899 197.745C189.004 201.205 192.894 206.583 195.734 212.823C196.827 215.225 198.368 216.93 201.176 217.131C206.548 217.519 210.568 213.231 209.504 207.925C208.023 200.544 203.827 195.266 196.515 192.987C189.88 190.917 183.254 192.025 176.7 193.605L176.697 193.602Z" fill="#1D130D"/>
<path d="M94.498 158.705C90.8228 156.942 87.219 155.4 83.7914 153.535C75.341 148.938 67.4138 143.55 62.8861 134.743C61.1302 131.328 59.2619 129.97 55.4106 129.796C47.4783 129.439 39.5843 128.339 31.6622 127.691C29.6076 127.522 29.0614 126.734 29.799 124.235C39.0458 125.21 48.4252 126.2 57.8582 127.196C57.8582 126.718 57.9322 126.445 57.848 126.241C53.4965 115.649 52.4424 104.501 52.4577 93.2127C52.4807 76.8019 54.3795 60.6667 60.3135 45.2232C61.3369 42.5586 62.6436 39.986 63.9963 37.4644C66.0075 33.7203 69.2896 32.679 73.1461 34.5574C81.012 38.3883 87.5891 43.9113 93.227 50.5241C96.6265 54.5133 99.753 58.7449 102.885 62.9535C103.732 64.0918 104.521 64.4619 105.927 64.296C118.999 62.7544 132.108 62.711 145.208 63.7779C148.784 64.0688 151.425 63.9284 153.791 60.2992C159.304 51.8513 166.884 45.213 174.768 38.9881C178.145 36.321 181.797 34.2103 186.258 33.8683C188.096 33.7279 189.607 34.269 190.477 35.785C191.774 38.0387 193.103 40.3459 193.894 42.8011C198.578 57.3794 201.094 72.384 202.327 87.6182C203.07 96.7909 203.465 105.987 201.725 115.085C200.962 119.074 199.566 122.941 198.397 127.081C202.442 126.634 206.403 126.157 210.372 125.769C214.94 125.322 219.516 124.975 224.085 124.544C226.18 124.345 226.765 125.274 226.165 127.461C220.739 128.005 215.216 128.592 209.685 129.1C205.359 129.495 201.02 129.758 196.694 130.169C196.087 130.228 195.201 130.672 194.994 131.167C192.35 137.519 187.478 142.044 182.481 146.422C176.23 151.899 169.031 155.717 160.685 158.001C161.04 158.92 161.318 159.729 161.662 160.512C165.243 168.613 168.661 176.773 170.023 185.608C171.506 195.233 170.521 204.4 164.876 212.677C164.643 213.017 164.46 213.415 164.156 213.67C161.77 215.676 159.638 217.713 158.75 220.998C158.401 222.292 156.369 223.626 154.866 224.004C152.377 224.629 149.7 224.601 147.099 224.617C146.357 224.622 145.088 223.933 144.961 223.361C144.524 221.396 143.197 221.582 141.801 221.585C131.464 221.595 121.128 221.59 110.659 221.59C110.414 224.101 108.625 224.527 106.672 224.783C100.457 225.599 96.8971 223.731 94.7838 219.249C94.1943 217.996 93.4899 216.748 92.6042 215.694C83.526 204.929 82.6633 192.617 86.2977 179.754C88.046 173.567 90.8636 167.682 93.2117 161.666C93.5919 160.694 94.0411 159.747 94.4929 158.713L94.498 158.705ZM158.005 119.335C157.982 124.564 162.124 128.997 167.025 128.982C172.816 128.964 176.904 125.029 176.968 119.414C177.027 114.235 172.77 110.226 167.216 110.231C162.053 110.233 158.031 114.212 158.005 119.335ZM79.0647 119.108C79.0187 124.641 82.4795 128.686 87.3135 128.74C93.7119 128.811 98.1987 124.983 98.2191 119.291C98.2319 115.688 94.5771 110.144 88.4186 110.221C83.2044 110.285 79.1055 114.118 79.0647 119.108ZM122.146 124.526C121.746 126.488 123.18 127.915 126.447 128.809C126.347 129.574 126.25 130.365 126.138 131.157C126.028 131.948 125.903 132.739 125.791 133.482C121.067 134.393 120.033 133.888 118.101 129.837C117.749 129.097 117.468 128.303 116.991 127.655C116.705 127.267 116.054 126.848 115.661 126.925C115.306 126.994 114.839 127.711 114.832 128.153C114.768 131.187 116.355 133.418 118.591 135.245C120.911 137.139 123.693 137.512 126.186 136.182C127.631 135.411 128.481 135.702 129.703 136.139C134.818 137.971 140.3 134.337 140.622 128.911C140.655 128.359 140.308 127.783 140.134 127.219C139.606 127.578 138.932 127.831 138.572 128.319C137.465 129.817 136.668 131.585 135.4 132.915C133.608 134.799 131.202 134.306 129.974 132.027C129.517 131.18 129.208 130.253 128.887 129.495C130.393 128.88 131.934 128.576 132.996 127.696C133.626 127.175 133.976 125.511 133.613 124.774C132.983 123.49 132.151 124.368 131.352 125.108C130.842 125.583 129.854 125.828 129.134 125.738C126.853 125.458 124.596 124.97 122.141 124.531L122.146 124.526Z" fill="#FAF6F3"/>
<path d="M157.833 119.344C157.856 114.452 162.001 110.656 167.317 110.654C173.035 110.651 177.419 114.479 177.358 119.42C177.293 124.777 173.083 128.534 167.12 128.553C162.077 128.568 157.809 124.336 157.833 119.344Z" fill="#1D130D"/>
<path d="M79.727 119.243C79.7675 114.424 83.5977 110.719 88.4677 110.655C94.2226 110.581 97.6378 115.938 97.6259 119.421C97.6068 124.921 93.4141 128.621 87.4351 128.552C82.9204 128.5 79.6841 124.591 79.727 119.243Z" fill="#1D130D"/>
<path d="M122.444 124.088C124.767 124.535 126.902 125.026 129.061 125.311C129.742 125.401 130.675 125.153 131.16 124.672C131.916 123.923 132.703 123.033 133.3 124.334C133.643 125.081 133.312 126.766 132.715 127.293C131.708 128.185 130.252 128.495 128.827 129.116C129.131 129.884 129.424 130.822 129.856 131.68C131.018 133.988 133.295 134.487 134.99 132.58C136.188 131.23 136.944 129.441 137.992 127.924C138.333 127.433 138.968 127.174 139.47 126.81C139.632 127.381 139.961 127.963 139.932 128.524C139.627 134.019 134.44 137.703 129.6 135.844C128.443 135.4 127.639 135.108 126.272 135.888C123.912 137.235 121.28 136.86 119.085 134.94C116.967 133.089 115.467 130.832 115.527 127.756C115.537 127.309 115.976 126.583 116.312 126.513C116.684 126.435 117.302 126.857 117.57 127.252C118.022 127.909 118.288 128.715 118.621 129.462C120.449 133.564 121.43 134.076 125.898 133.153C126.004 132.401 126.12 131.602 126.226 130.799C126.33 129.997 126.424 129.196 126.518 128.42C123.427 127.516 122.07 126.07 122.449 124.083L122.444 124.088Z" fill="#1D130D"/>
</svg>
