<svg width="109" height="108" viewBox="0 0 109 108" fill="none" xmlns="http://www.w3.org/2000/svg">
<path d="M31.4231 33.1667H77.5769M31.4231 49.8333H54.5M4.5 58.2222C4.5 67.1111 10.259 74.8556 18.382 76.15C24.1718 77.0722 30.0231 77.7778 35.9359 78.2556C37.7308 78.4 39.3718 79.4222 40.3718 81.0389L54.5 104L68.6282 81.0389C69.1238 80.2404 69.7809 79.5747 70.5495 79.0924C71.3182 78.6102 72.1781 78.3239 73.0641 78.2556C78.9367 77.7806 84.7917 77.0783 90.6179 76.15C98.741 74.8556 104.5 67.1167 104.5 58.2167V24.7833C104.5 15.8833 98.741 8.14446 90.6179 6.85001C78.6588 4.94842 66.5873 3.99589 54.5 4.00001C42.2333 4.00001 30.1718 4.97224 18.382 6.85001C10.259 8.14446 4.5 15.8889 4.5 24.7833V58.2167V58.2222Z" stroke="#E9B44B" stroke-width="8" stroke-linecap="round" stroke-linejoin="round"/>
</svg>
