<svg width="140" height="107" viewBox="0 0 140 107" fill="none" xmlns="http://www.w3.org/2000/svg">
<path d="M44.6841 92.6957C44.6841 95.3048 43.6125 97.8071 41.7051 99.652C39.7977 101.497 37.2106 102.533 34.5131 102.533C31.8156 102.533 29.2286 101.497 27.3211 99.652C25.4137 97.8071 24.3421 95.3048 24.3421 92.6957M44.6841 92.6957C44.6841 90.0865 43.6125 87.5843 41.7051 85.7393C39.7977 83.8944 37.2106 82.8579 34.5131 82.8579C31.8156 82.8579 29.2286 83.8944 27.3211 85.7393C25.4137 87.5843 24.3421 90.0865 24.3421 92.6957M44.6841 92.6957H85.3681M24.3421 92.6957H11.6284C9.60523 92.6957 7.66496 91.9183 6.23439 90.5346C4.80381 89.1509 4.00013 87.2742 4.00013 85.3174V63.1824M85.3681 92.6957H100.625M85.3681 92.6957V63.1824M4.00013 63.1824V13.1083C3.98935 11.3124 4.66776 9.57648 5.90406 8.23651C7.14036 6.89655 8.84663 6.04783 10.6926 5.85462C33.2929 3.58557 56.0753 3.58557 78.6756 5.85462C82.5066 6.23502 85.3681 9.38309 85.3681 13.1083V19.3914M4.00013 63.1824H85.3681M120.967 92.6957C120.967 95.3048 119.895 97.8071 117.988 99.652C116.08 101.497 113.493 102.533 110.796 102.533C108.098 102.533 105.511 101.497 103.604 99.652C101.696 97.8071 100.625 95.3048 100.625 92.6957M120.967 92.6957C120.967 90.0865 119.895 87.5843 117.988 85.7393C116.08 83.8944 113.493 82.8579 110.796 82.8579C108.098 82.8579 105.511 83.8944 103.604 85.7393C101.696 87.5843 100.625 90.0865 100.625 92.6957M120.967 92.6957H128.595C132.806 92.6957 136.25 89.3902 135.986 85.3239C134.623 63.6654 127.082 42.7958 114.199 25.0317C112.972 23.3676 111.37 21.9952 109.514 21.0181C107.658 20.0409 105.597 19.4847 103.486 19.3914H85.3681M85.3681 19.3914V63.1824" stroke="#E9B44B" stroke-width="7" stroke-linecap="round" stroke-linejoin="round"/>
</svg>
