<svg width="101" height="100" viewBox="0 0 101 100" fill="none" xmlns="http://www.w3.org/2000/svg">
<path d="M5.36512 0.154762C4.0224 -0.24473 2.57394 0.142446 1.59308 1.16303C0.612221 2.18362 0.257107 3.67307 0.668304 5.04181L13.0045 46.1047H56.195C58.2958 46.1047 59.9989 47.849 59.9989 50.0007C59.9989 52.1524 58.2958 53.8966 56.195 53.8966H13.0045L0.668768 94.9582C0.257569 96.327 0.612689 97.8164 1.59356 98.837C2.57443 99.8576 4.02291 100.245 5.36563 99.8452C39.3399 89.7366 70.8903 73.7994 98.9166 53.1627C99.9107 52.4307 100.5 51.2534 100.5 49.9994C100.5 48.7454 99.9107 47.5681 98.9165 46.8361C70.8901 26.1998 39.3395 10.263 5.36512 0.154762Z" fill="#E9B44B"/>
</svg>
