<svg width="27" height="15" viewBox="0 0 27 15" fill="none" xmlns="http://www.w3.org/2000/svg">
<path d="M15.2517 0.683694L26.4194 11.6756C27.7373 12.9688 26.6662 15 24.666 15L2.33055 15C1.88289 15.0003 1.44462 14.8895 1.06821 14.6809C0.691799 14.4723 0.393209 14.1746 0.208193 13.8236C0.0231761 13.4726 -0.0404245 13.0831 0.0250128 12.7018C0.0904501 12.3205 0.282146 11.9635 0.577148 11.6736L11.7449 0.685701C11.9634 0.470335 12.233 0.297724 12.5354 0.179457C12.8378 0.0611899 13.1661 1.2094e-06 13.4983 1.18036e-06C13.8304 1.15132e-06 14.1587 0.0611898 14.4611 0.179457C14.7636 0.297724 15.0331 0.470335 15.2517 0.6857L15.2517 0.683694Z" fill="#1D130D"/>
</svg>
